# xmcd
#
# Track frame offsets: 
#        150
#        20817
#        41732
#        63263
#        85874
#        112807
#        139723
#        169962
#        195847
#        226521
#        254583
#        278326
#
# Disc length: 3966 seconds
#
# Revision: 0
# Processed by: cddbd v1.5.2PL0 Copyright (c) Steve Scherf et al.
# Submitted via: ExactAudioCopyFreeDBPlugin 1.0
#
DISCID=940f7c0c
DTITLE=Cool Stream Band - A Little Time
DYEAR=2006
DGENRE=Country
TTITLE0=What Good Thing
TTITLE1=Night Time Summer
TTITLE2=Searchin'
TTITLE3=Hope
TTITLE4=Lonely
TTITLE5=Crossroads
TTITLE6=Back For More
TTITLE7=Talkin' 'Bout Love
TTITLE8=Mikayla Moon
TTITLE9=A Little Time
TTITLE10=Find My Way
TTITLE11=When I Was A Child
EXTD=
EXTT0=
EXTT1=
EXTT2=
EXTT3=
EXTT4=
EXTT5=
EXTT6=
EXTT7=
EXTT8=
EXTT9=
EXTT10=
EXTT11=
PLAYORDER=
